<svg width="1920" height="7487" viewBox="0 0 1920 7487" fill="none" xmlns="http://www.w3.org/2000/svg">
<path d="M2073.45 4204.98C2028.48 4193.81 1983.52 4182.65 1938.55 4171.49C1927.06 4217.78 1914.73 4261.95 1901.62 4304.11C1775.17 4765.99 1417.39 5141.49 937.458 5193.85C768.495 5221.02 594.736 5223.13 415.559 5227.75C242.865 5242.95 30.9958 5205.21 -135.588 5390.99C-173.321 5442.15 -190.058 5498.6 -196.573 5556.04C-150.524 5561.17 -104.476 5566.3 -58.427 5571.43C-53.8261 5531.15 -43.1337 5499.86 -23.9405 5473.79C172.146 5294.27 613.118 5402.22 959.381 5331.11C1481.1 5280.99 1908.63 4832.77 2034.36 4345.37C2048.3 4300.53 2061.34 4253.76 2073.45 4204.98Z" fill="#AAD5A7"/>
<path d="M1886.5 1318.23C1886.5 2542.23 98 1386.73 65 2243.23" stroke="#AAD5A7" stroke-width="139"/>
<path d="M1881.54 2971.62C1974.18 2969.36 2066.82 2967.1 2159.46 2964.85C2156.78 2912.69 2150.77 2868.25 2136.2 2814.84C2107.34 2701.36 2023.08 2586.04 1918.98 2527.72C1815.68 2467.35 1709.73 2447.33 1610.85 2437.09C1411.66 2419.27 1228.79 2440.96 1048.3 2460.35C868.45 2480.28 691.58 2505.06 520.701 2506.06C352.214 2507.08 180.152 2476.7 146.894 2344.07C137.972 2314.06 134.214 2283.02 134.445 2245.5C88.1484 2243.65 41.8515 2241.81 -4.4451 2239.97C-7.31839 2288.23 -5.64921 2332.08 5.70646 2381.05C26.8818 2491.31 125.29 2589.43 223.607 2626.03C322.558 2666.52 420.649 2677.3 515.581 2683.21C705.495 2692.88 886.899 2677.32 1065.67 2668.12C1401.53 2647.5 1848.13 2641.92 1873.64 2882.17C1879.61 2910.71 1881.74 2937.41 1881.54 2971.62Z" fill="#AAD5A7"/>
<path d="M1817.01 1327.89C1863.34 1327.12 1909.66 1326.35 1955.99 1325.57C1955.54 1274.84 1952.03 1231.31 1941.5 1180.7C1908.39 943.721 1648.46 807.078 1454.12 783.304C1250.42 747.882 1054.22 747.519 865.129 725.529C480.47 702.705 161.372 497.908 136.177 120.607C131.121 82.2316 127.803 42.9427 126.02 -0.000387009C56.339 3.82122 -13.3421 7.64289 -83.0235 11.4645C-79.742 60.2668 -74.6811 105.609 -67.4556 150.67C-36.2754 358.783 59.5142 582.696 247.412 714.935C432.708 847.568 649.719 880.939 847.987 898.863C1222.37 939.734 1723.91 860.357 1802.45 1211.95C1811.45 1250.1 1815.57 1285.18 1817.01 1327.89Z" fill="#AAD5A7"/>
<path d="M1976.53 6237.12C1993.24 6231.4 2009.96 6225.67 2026.67 6219.95C2011.97 6175.2 1987.37 6135.43 1954.41 6102.86C1607.47 5859.95 1195.53 5986.49 826.65 5997.47C639.017 6011.97 451.34 6027.2 267.591 6014.14C89.3948 6003.14 -107.401 5943.51 -116.469 5779.1C-120.499 5743.13 -118.713 5708.69 -112.414 5668.07C-150.138 5662.57 -187.862 5657.08 -225.586 5651.58C-231.988 5700.51 -233.56 5744.11 -226.82 5793.6C-216.276 5903.2 -131.125 6009.24 -33.3669 6049.73C63.8845 6094.13 164.061 6105.74 261.362 6111.43C457.302 6120.43 646.11 6099.85 834.347 6080.8C1199.85 6056.14 1620.61 5940.7 1915.38 6143.1C1942.9 6169.08 1963.34 6200.17 1976.53 6237.12Z" fill="#AAD5A7"/>
<path d="M1935.54 6889.9C1980.01 6905.12 2024.48 6920.35 2068.94 6935.57C2051.09 6986.17 2021.48 7031.55 1983.29 7067.52C1591.88 7323.13 1198.05 7171.11 826.416 7153.28C639.278 7133.65 452.577 7113.25 267.851 7121.16C90.7541 7127.47 -118.999 7179.17 -137.139 7359.37C-142.64 7397.84 -141.863 7434.23 -136.454 7476.8C-157.723 7479.9 -178.992 7483 -200.261 7486.09C-207.553 7439.1 -210.134 7397.47 -204.865 7350.47C-197.135 7246.71 -120.708 7146.1 -26.767 7103.92C66.4936 7058.45 165.689 7043.98 262.387 7035.81C457.349 7021.67 647.133 7037.06 835.866 7050.98C1198.61 7068.8 1637.49 7158.76 1887.78 6969.06C1910.07 6946.47 1925.51 6921 1935.54 6889.9Z" fill="#AAD5A7"/>
</svg>
