<svg width="1353" height="1353" viewBox="0 0 1353 1353" fill="none" xmlns="http://www.w3.org/2000/svg">
<g style="mix-blend-mode:color-dodge" opacity="0.05">
<path d="M579.607 45.6354C612.158 24.836 638.864 6.81936 679.524 15.5691C693.798 18.6406 702.106 23.8642 715.389 29.1797C766.35 49.5735 802.575 98.2533 825.938 146.12C842.163 179.363 839.446 238.028 832.657 273.867C827.413 299.345 817.613 324.857 810.088 349.52C805.127 365.778 801.179 386.664 797.504 403.585C883.375 432.888 779.799 512.835 831.166 534.287C854.782 544.15 890.224 528.274 911.004 572.408C912.661 572.722 913.506 572.936 915.219 573.025L917.539 570.799C935.969 553.181 962.513 528.495 989.431 529.089C1003.35 535.976 997.374 557.936 991.699 568.904C991.056 570.156 990.358 571.38 989.609 572.57C997.949 571.879 1008.67 570.369 1016.57 572.966C1028.63 576.907 1031.9 577.498 1044.45 579.725C1044.13 591.428 1040.18 616.123 1048.39 624.719C1052.84 629.39 1059.02 629.341 1065.01 629.325C1094.92 629.247 1100.32 587.652 1146.63 604.263C1162.1 621.806 1168.44 633.473 1173.87 655.843C1177.71 670.465 1185.16 702.102 1185.26 716.884C1188.36 732.098 1186.88 760.606 1184.18 776.123C1177.89 793.652 1178.28 806.818 1176.75 825.312C1171.18 873.828 1152.09 939.819 1127.32 983.026C1122.32 991.747 1106.74 1009.19 1099.91 1018.28C1093.42 1026.93 1082.82 1042.66 1075.96 1050.13C1065.44 1069.84 1044.92 1092.36 1029.86 1109.14C1010.52 1130.68 989.583 1149.65 968.01 1168.86C909.745 1220.75 869.369 1249.05 799.09 1282.36C772.82 1294.81 746.754 1306.34 718.894 1314.85C586.336 1355.37 395.704 1353.69 271.754 1287.51C253.594 1277.81 226.948 1265.52 211.757 1252.12L205.277 1249.3C203.504 1247.57 194.295 1241.39 191.749 1239.61C190.875 1237.55 150.572 1209.96 148.044 1202.62C147.357 1200.63 141.529 1196.69 138.485 1196.6L137.366 1199.91C140.357 1209.82 145.015 1211.9 148.848 1223.5C136.062 1213.94 132.167 1200.51 123.738 1191.41C102.455 1168.42 90.5061 1154.53 73.8591 1127.45C42.5958 1076.58 24.1908 1016.38 13.5638 957.915C9.35347 934.752 11.4366 906.933 10.553 883.644C8.91201 840.397 14.9139 796.509 25.7671 754.426C28.1602 746.604 30.4454 738.75 32.6223 730.866C41.3034 703.477 39.4165 692.562 54.6971 663.366C57.2735 656.174 62.41 647.337 65.6929 640.128C92.9221 579.556 135.254 529.59 177.059 478.957C200.615 450.425 240.931 430.303 260.071 401.7C254.82 396.005 240.749 381.5 237.241 375.801C190.466 299.843 256.864 187.91 327.425 151.511C333.921 148.16 363.545 143.175 364.852 141.216C384.044 112.427 367.163 92.4081 400.078 68.9734C408.027 59.1249 418.059 51.1599 429.454 45.6512C454.256 34.8484 475.386 27.4615 502.873 28.4165C530.085 29.362 555.389 55.2116 579.607 45.6354ZM621.244 1023.83C620.109 1000.52 622.651 987.89 625.793 964.645C603.435 999.752 619.091 986.673 615.211 1016.57L615.116 1017.27L618.253 1017.08C619.685 1019.71 620.187 1021.01 621.244 1023.83ZM594.253 680.035L598.924 677.773L598.944 675.955C593.111 674.034 581.726 675.165 575.204 675.523L570.433 677.376L571.12 678.661C577.647 680.291 587.528 680.684 594.253 680.035ZM638.882 679.465C643.763 677.51 644.383 678.21 646.787 674.586C644.239 672.141 641.07 672.309 637.217 672.387C633.21 675.077 631.235 675.372 629.631 679.197C633.136 680.928 634.395 679.99 638.882 679.465Z" fill="black"/>
<path d="M615.116 1017.27L615.211 1016.57C619.09 986.673 603.434 999.753 625.793 964.645C622.651 987.89 620.109 1000.52 621.244 1023.83C620.187 1021.01 619.685 1019.71 618.253 1017.08L615.116 1017.27Z" fill="white"/>
<path d="M260.071 401.7C265.832 398.974 294.701 409.814 298.214 416.118C303.26 425.248 307.854 439.601 311.455 449.771C313.364 454.226 316.92 464.461 318.9 467.645C290.888 501.025 271.605 521.023 246.372 558.147C186.65 645.816 158.676 751.259 167.083 857.003C169.289 882.339 174.161 897.498 180.263 920.844C199.703 995.228 242.381 1058.31 301.029 1107.43C315.211 1119.31 349.719 1144.43 366.302 1153.46C369.597 1153.99 369.216 1154.47 371.684 1153.3L368.566 1147.52L384.72 1156.15L382.991 1162.65L390.251 1165.72C404.468 1171.67 460.202 1194.44 471.195 1191.19L472.503 1189.49C473.2 1195.49 472.79 1193.7 478.003 1198.27C483.38 1199.28 481.251 1199.55 486.091 1197.47L487.452 1195.7C495.715 1204.46 590.847 1214.45 595.29 1205.44C597.275 1212.89 605.66 1210.44 612.666 1209.82C656.642 1206.14 700.39 1203.47 742.726 1190.25C760.547 1184.69 803.906 1173.58 818.386 1163.45L816.017 1159.77C820.747 1156.69 821.753 1156.56 827.326 1155.38C835.277 1159.06 843.542 1151.92 850.189 1147.67C856.019 1148.72 861.086 1142.99 864.96 1139.31C866.657 1133.15 866.728 1125.83 867.072 1119.37C868.723 1107.4 869.653 1088.7 870.591 1076.25C875.94 1012.74 875.176 948.851 868.312 885.478C877.708 876.199 888.294 868.964 898.167 858.286C915.485 839.554 909.054 830.224 918.196 809.718C924.462 795.666 935.954 780.375 943.098 765.999C956.765 738.499 961.619 704.545 960.066 674.088C959.445 661.903 957.062 649.463 956.43 636.721C955.19 611.717 969.03 596.022 984.191 578.126C984.627 577.612 988.183 574.226 988.384 574.21C996.749 573.593 1008.59 573.202 1016.57 572.965C1028.63 576.907 1031.9 577.497 1044.45 579.725C1044.13 591.428 1040.18 616.123 1048.39 624.719C1052.84 629.39 1059.02 629.341 1065.01 629.325C1094.92 629.247 1100.32 587.651 1146.63 604.263C1162.1 621.805 1168.44 633.472 1173.87 655.843C1177.71 670.465 1185.16 702.101 1185.26 716.884C1188.36 732.097 1186.88 760.606 1184.18 776.123C1177.89 793.652 1178.28 806.818 1176.75 825.312C1171.18 873.828 1152.09 939.819 1127.32 983.026C1122.32 991.747 1106.74 1009.19 1099.91 1018.28C1093.42 1026.93 1082.82 1042.66 1075.96 1050.13C1065.44 1069.84 1044.92 1092.36 1029.86 1109.14C1010.52 1130.68 989.583 1149.65 968.01 1168.86C909.745 1220.75 869.369 1249.05 799.09 1282.36C772.82 1294.81 746.754 1306.34 718.894 1314.85C586.336 1355.37 395.704 1353.69 271.754 1287.51C253.594 1277.81 226.948 1265.52 211.757 1252.12L205.277 1249.3C203.504 1247.57 194.295 1241.39 191.749 1239.61C190.875 1237.55 150.572 1209.95 148.044 1202.62C147.357 1200.63 141.529 1196.69 138.485 1196.6L137.366 1199.91C140.357 1209.82 145.015 1211.9 148.848 1223.5C136.062 1213.94 132.167 1200.51 123.738 1191.41C102.455 1168.42 90.5061 1154.53 73.8591 1127.45C42.5958 1076.58 24.1908 1016.38 13.5638 957.915C9.35347 934.751 11.4366 906.933 10.553 883.644C8.91201 840.397 14.9139 796.509 25.7671 754.426C28.1602 746.604 30.4454 738.75 32.6223 730.866C41.3034 703.477 39.4165 692.562 54.6971 663.365C57.2735 656.174 62.41 647.337 65.6929 640.128C92.9221 579.556 135.254 529.59 177.059 478.957C200.615 450.425 240.931 430.303 260.071 401.7Z" fill="black"/>
<path d="M868.311 885.477C877.707 876.197 888.293 868.963 898.166 858.284C915.484 839.552 909.053 830.223 918.195 809.716C924.461 795.665 935.953 780.373 943.097 765.998C956.763 738.498 961.618 704.543 960.065 674.086C959.444 661.901 957.061 649.461 956.429 636.72C955.189 611.716 969.029 596.02 984.189 578.125C984.625 577.611 988.182 574.224 988.383 574.209C996.748 573.591 1008.58 573.2 1016.57 572.964C1028.63 576.905 1031.9 577.496 1044.45 579.724C1044.13 591.426 1040.18 616.121 1048.39 624.717C1052.84 629.388 1059.02 629.339 1065.01 629.323C1094.92 629.246 1100.32 587.65 1146.63 604.261C1162.1 621.804 1168.44 633.471 1173.86 655.842C1166.43 671.63 1163.42 703.383 1161.87 721.213C1161.15 729.467 1154.2 773.246 1155.18 777.575C1153.48 788.458 1151.57 799.31 1149.46 810.121C1150.61 812.243 1152.31 815.066 1153.01 817.303C1144.25 854.68 1139.14 868.954 1123.82 904.187C1118.88 915.113 1105.98 942.997 1098.92 951.471L1097.92 949.2C1100.33 944.69 1102.36 941.766 1102.52 936.661L1101.58 935.306C1091.09 938.205 1084.03 960.564 1078.74 957.631C1065 973.23 1052.22 991.789 1038.14 1007.8C999.568 1051.64 953.012 1088.92 903.438 1119.6C895.742 1124.36 872.179 1138.64 864.959 1139.31C866.656 1133.15 866.727 1125.83 867.07 1119.37C868.722 1107.4 869.652 1088.69 870.59 1076.25C875.939 1012.73 875.175 948.85 868.311 885.477Z" fill="white"/>
<path d="M1149.46 810.12C1150.61 812.242 1152.31 815.066 1153.01 817.303C1144.25 854.679 1139.14 868.953 1123.82 904.187L1120.86 901.947L1117.33 902.547L1115.43 899.924C1130.97 866.024 1140.16 846.239 1149.46 810.12Z" fill="black"/>
<path d="M1115.43 899.927L1117.33 902.549L1120.86 901.95L1123.82 904.189C1118.88 915.115 1105.98 942.999 1098.92 951.473L1097.92 949.202C1100.33 944.692 1102.36 941.768 1102.52 936.663L1101.58 935.308C1091.09 938.207 1084.03 960.566 1078.74 957.633C1091.16 937.169 1102.76 922.891 1115.43 899.927Z" fill="black"/>
<path d="M311.454 449.77C313.363 454.225 316.919 464.46 318.899 467.644C290.887 501.024 271.604 521.021 246.371 558.146C186.649 645.814 158.675 751.257 167.082 857.001C169.289 882.337 174.16 897.496 180.262 920.842C199.702 995.227 242.38 1058.3 301.028 1107.43C315.21 1119.31 349.719 1144.43 366.301 1153.46C369.596 1153.99 369.215 1154.47 371.684 1153.3L368.565 1147.52L384.719 1156.15L382.99 1162.65L390.25 1165.72C404.467 1171.67 460.201 1194.44 471.194 1191.19L472.502 1189.49C473.2 1195.49 472.789 1193.7 478.002 1198.27C483.379 1199.28 481.25 1199.55 486.09 1197.47L487.451 1195.69C495.714 1204.46 590.846 1214.45 595.289 1205.44C597.274 1212.89 605.659 1210.43 612.666 1209.82C656.641 1206.13 700.389 1203.47 742.725 1190.25C760.546 1184.69 803.905 1173.58 818.385 1163.45L816.016 1159.77C820.746 1156.69 821.752 1156.55 827.325 1155.37C835.276 1159.06 843.541 1151.92 850.188 1147.67C856.018 1148.72 861.085 1142.99 864.959 1139.31C872.179 1138.64 895.742 1124.36 903.438 1119.6C953.012 1088.92 999.568 1051.64 1038.14 1007.8C1052.22 991.789 1065 973.23 1078.74 957.631C1084.03 960.564 1091.09 938.205 1101.58 935.306L1102.52 936.661C1102.36 941.766 1100.33 944.69 1097.92 949.2L1098.92 951.471C1050.02 1046.14 983.934 1110.75 895.612 1169.44C881.277 1178.97 868.524 1184.98 853.222 1192.58C849.496 1194.42 835.57 1201.07 833.503 1202.67C810.666 1212.56 774.942 1227.36 751.294 1233.95C707.755 1246.09 635.731 1259.36 591.279 1259.6C513.854 1260.02 414.46 1238.76 346.455 1201.62C247.419 1147.9 172.38 1062.63 140.603 953.393C100.954 817.092 137.046 666.331 216.877 551.303C231.572 530.129 290.63 455.939 311.454 449.77Z" fill="black"/>
<path d="M368.566 1147.51L384.721 1156.14L382.991 1162.65C379.314 1161.07 370.209 1155.64 366.302 1153.46C369.597 1153.98 369.216 1154.47 371.685 1153.3L368.566 1147.51Z" fill="white"/>
<path d="M298.214 416.119C303.26 425.249 307.854 439.602 311.455 449.772C290.631 455.941 231.572 530.132 216.878 551.306C137.047 666.334 100.955 817.095 140.604 953.396C172.381 1062.63 247.42 1147.9 346.456 1201.62C414.461 1238.76 513.855 1260.03 591.28 1259.6C635.732 1259.36 707.756 1246.09 751.295 1233.95C774.943 1227.36 810.667 1212.57 833.504 1202.67C835.289 1211.88 824.884 1213.5 835.781 1220.99C837.393 1222.08 839.026 1223.14 840.68 1224.17L840.558 1225.41C828.305 1233.46 800.401 1242.19 792.827 1250.68C781.684 1259.58 716.521 1277.39 700.919 1281.72C564.705 1319.62 406.946 1301.23 284.797 1225.83C186.431 1166.34 116.068 1069.84 89.4982 958C47.0284 777.204 118.55 594.798 247.181 465.872C263.614 449.401 285.91 435.985 298.214 416.119Z" fill="white"/>
<path d="M1173.86 655.84C1177.71 670.461 1185.16 702.098 1185.26 716.881C1188.36 732.094 1186.88 760.602 1184.18 776.119C1177.89 793.649 1178.28 806.814 1176.75 825.308C1171.18 873.825 1152.09 939.815 1127.32 983.023C1122.32 991.743 1106.74 1009.18 1099.91 1018.28C1093.42 1026.92 1082.82 1042.66 1075.96 1050.12C1079.35 1034.5 1120.34 991.179 1111.68 978.583C1106.18 982.5 1100.2 998.15 1092.55 1005.37L1090.66 1005.01C1084.89 1010.99 1077.21 1025.91 1071.57 1033.56C1060.11 1049.13 1048.42 1063.53 1035.95 1078.33C982.919 1140.81 917.725 1191.84 844.335 1228.31C833.766 1233.67 803.563 1247.64 792.826 1250.67C800.4 1242.19 828.304 1233.45 840.558 1225.4L840.679 1224.16C839.025 1223.14 837.392 1222.08 835.78 1220.99C824.883 1213.5 835.288 1211.87 833.503 1202.67C835.57 1201.06 849.496 1194.42 853.222 1192.57C868.524 1184.98 881.277 1178.97 895.612 1169.44C983.935 1110.75 1050.02 1046.14 1098.92 951.469C1105.98 942.996 1118.88 915.111 1123.82 904.185C1139.14 868.952 1144.25 854.678 1153.01 817.301C1152.31 815.064 1150.61 812.241 1149.46 810.119C1151.57 799.308 1153.48 788.456 1155.18 777.573C1154.2 773.244 1161.15 729.465 1161.87 721.211C1163.42 703.381 1166.43 671.628 1173.86 655.84Z" fill="white"/>
<path d="M1167.83 817.015L1171.49 807.839L1173.85 808.091C1177.75 813.017 1173.95 822.084 1176.75 825.308C1171.18 873.824 1152.09 939.815 1127.32 983.022C1122.32 991.743 1106.74 1009.18 1099.91 1018.28C1093.42 1026.92 1082.82 1042.66 1075.96 1050.12C1079.35 1034.5 1120.34 991.178 1111.68 978.582C1106.18 982.499 1100.2 998.149 1092.55 1005.37L1090.66 1005.01C1095.85 993.808 1114.43 969.563 1122.86 952.854C1146.43 906.145 1155 867.021 1167.83 817.015Z" fill="black"/>
<path d="M1171.23 773.109C1176.6 773.713 1180.26 773.243 1184.18 776.123C1177.89 793.653 1178.28 806.818 1176.75 825.312C1173.95 822.088 1177.75 813.021 1173.86 808.096L1171.49 807.843L1167.83 817.02C1169.86 802.047 1168.31 788.649 1171.23 773.109Z" fill="black"/>
<path d="M1185.26 716.882C1188.36 732.095 1186.88 760.603 1184.18 776.12C1180.25 773.24 1176.6 773.711 1171.23 773.107C1171.93 767.58 1173.78 758.677 1176.43 753.879C1176.59 755.922 1176.82 757.864 1177.06 759.899L1179.99 760.196C1185.58 753.283 1184.89 726.502 1185.26 716.882Z" fill="black"/>
<path d="M1155.18 777.573C1161.89 785.979 1155.21 807.222 1153.01 817.302C1152.31 815.065 1150.61 812.241 1149.46 810.119C1151.57 799.308 1153.48 788.457 1155.18 777.573Z" fill="black"/>
<path d="M25.7671 754.425C33.8779 756.053 32.4817 761.13 33.4633 768.929C29.9293 780.399 27.0388 797.146 25.0384 809.245C10.0164 905.456 26.0593 1003.95 70.8368 1090.42C104.997 1154.93 145.55 1204 205.017 1246.57C207.011 1248 209.988 1250.43 211.757 1252.12L205.277 1249.3C203.504 1247.56 194.295 1241.39 191.749 1239.61C190.875 1237.55 150.572 1209.95 148.044 1202.62C147.357 1200.63 141.529 1196.69 138.485 1196.6L137.366 1199.91C140.357 1209.82 145.015 1211.9 148.848 1223.5C136.062 1213.94 132.167 1200.51 123.738 1191.41C102.455 1168.42 90.5061 1154.53 73.8591 1127.44C42.5958 1076.58 24.1908 1016.38 13.5638 957.914C9.35347 934.75 11.4366 906.932 10.553 883.643C8.91201 840.396 14.9139 796.508 25.7671 754.425Z" fill="black"/>
<path d="M54.6968 663.364C56.7431 677.583 36.1836 696.912 45.8257 709.023C54.8012 706.186 58.6324 675.647 63.2127 673.859C62.653 683.061 57.1984 688.536 55.5623 694.988C51.3619 711.548 44.385 724.5 40.3124 741.158C38.1532 738.758 34.6625 733.669 32.6221 730.865C41.3032 703.476 39.4163 692.561 54.6968 663.364Z" fill="black"/>
<path d="M25.7661 754.423C28.1592 746.601 30.4444 738.747 32.6214 730.863C34.6618 733.667 38.1525 738.757 40.3117 741.156C38.0929 750.429 35.8098 759.686 33.4624 768.927C32.4808 761.129 33.877 756.051 25.7661 754.423Z" fill="black"/>
<path d="M565.321 63.6553C558.59 69.9585 544.13 81.76 544.346 91.2258L546.094 92.5605C554.419 86.4913 563.059 77.6779 569.672 70.2946C590.533 47.0043 608.198 35.8914 638.595 28.8021C650.425 26.0428 662.351 21.791 675.64 24.2539C721.953 32.8378 764.434 76.942 790.662 112.762C822.846 156.718 830.019 206.299 820.247 258.829C811.315 306.84 798.682 356.082 786.012 403.347C752.761 400.884 709.228 398.925 675.77 403.589C592.167 415.243 503.125 464.056 439.242 518.487C423.745 531.691 407.288 547.185 392.253 560.998C343.031 499.382 307.803 421.942 290.677 345.051C289.197 338.403 282.984 305.707 277.884 304.484C268.212 315.64 287.362 383.168 291.459 398.362C220.226 366.227 227.532 309.353 254.654 246.386C269.865 211.073 297.177 175.862 334.29 162.024C381.287 145.627 410.932 148.571 457.13 160.533C431.7 144.044 406.377 142.638 376.714 142.638C381.884 114.852 383.648 107.475 399.569 83.4115C400.876 78.619 401.629 75.8332 402.262 70.9122L400.077 68.9729C408.026 59.1245 418.058 51.1595 429.453 45.6507C454.255 34.848 475.385 27.4611 502.872 28.4161C530.084 29.3616 555.388 55.2112 579.606 45.635C579.336 46.1814 565.638 63.4463 565.321 63.6553Z" fill="white"/>
<path d="M429.454 45.6477C454.256 34.8449 475.386 27.458 502.872 28.413C530.084 29.3585 555.388 55.2081 579.606 45.6319C579.337 46.1783 565.639 63.4432 565.322 63.6522C562.879 59.8371 534.016 48.7207 528.371 47.3063C492.364 38.286 457.881 43.3398 425.984 61.0925C426.951 54.8779 431.011 50.8843 429.454 45.6477Z" fill="black"/>
<path d="M400.077 68.9736C408.026 59.1251 418.059 51.1601 429.453 45.6514C431.011 50.888 426.951 54.8816 425.984 61.0962C414.473 68.2535 408.91 73.515 399.57 83.4121C400.877 78.6196 401.63 75.8338 402.263 70.9128L400.077 68.9736Z" fill="black"/>
<path d="M355.172 302.157L357.536 303.818C360.667 308.978 370.141 360.336 372.721 371.716C378.476 397.087 393.62 434.315 396.006 458.817C386.279 445.545 350.323 316.946 355.172 302.157Z" fill="black"/>
<path d="M769.046 183.969C767.592 239.325 759.083 260.477 751.165 310.186L748.564 304.943C752.597 281.419 755.8 257.501 758.946 233.849C760.122 225.013 761.423 199.541 763.429 192.852L764.474 193.182C767.086 191.454 767.928 187.234 769.046 183.969Z" fill="black"/>
<path d="M527.867 258.864C531.098 287.337 534.63 315.773 538.464 344.169C540.327 357.616 543.659 374.292 545.005 387.221C535.47 362.603 524.566 298.325 522.926 271.224C524.885 267.431 526.385 262.899 527.867 258.864Z" fill="white"/>
<path d="M519.094 183.376C519.071 182.691 519.06 182.005 519.06 181.319C519.032 177.104 519.06 172.352 521.86 169.533L523.654 171.247C524.209 195.05 524.004 236.653 527.868 258.864C526.385 262.899 524.886 267.431 522.926 271.224C519.848 249.759 516.059 204.829 519.094 183.376Z" fill="black"/>
<path d="M519.095 183.376C519.071 182.691 519.06 182.005 519.06 181.319C519.033 177.104 519.06 172.352 521.86 169.533L523.655 171.247L523.495 172.587C521.917 186.493 523.351 199.153 521.424 214.291L520.765 214.421C520.178 206.126 519.991 190.551 519.095 183.376Z" fill="black"/>
<path d="M763.428 192.849C763.457 187.201 762.781 174.701 767.459 171.179C769.95 174.454 769.162 179.651 769.045 183.966C767.927 187.231 767.085 191.451 764.473 193.179L763.428 192.849Z" fill="black"/>
<path d="M748.565 304.939L751.165 310.182C750.327 316.517 749.918 319.334 748.055 325.394L747.098 324.525C746.533 317.696 747.636 311.689 748.565 304.939Z" fill="white"/>
<path d="M318.899 467.644C329.383 485.351 340.748 505.287 352.012 522.319C361.712 536.982 374.491 552.922 385.075 567.112C375.585 580.24 358.876 599.302 361.758 615.424C364.045 628.22 380.329 654.992 388.122 664.76C383.542 669.168 374.926 676.313 375.292 682.979C382.545 686.647 398.736 675.875 402.639 687.098C403.503 689.147 402.183 695.631 400.778 696.91C380.637 715.27 292.738 753.791 285.476 704.737C282.416 684.055 304.487 673.943 321.424 672.569C324.767 672.298 329.557 671.618 332.063 669.348C330.403 660.027 315.983 660.786 309.388 662.786C287.965 669.284 266.266 689.207 262.068 711.464C250.877 770.803 307.229 767.341 345.338 751.061C369.036 740.938 390.084 727.013 411.351 718.391C444.298 740.869 444.189 739.516 461.506 775.112C436.214 788.893 411.6 808.017 391.796 828.94C386.043 835.017 380.182 843.141 376.527 850.613C368.894 866.218 367.532 884.176 362.791 900.695C357.78 918.16 351.348 935.183 347.017 952.845C336.22 1000.67 330.831 1062.12 344.532 1109.04C351.085 1125.71 355.442 1134.75 368.565 1147.52L371.684 1153.3C369.215 1154.47 369.596 1153.99 366.301 1153.46C349.719 1144.43 315.21 1119.31 301.028 1107.43C242.38 1058.3 199.702 995.226 180.262 920.842C174.16 897.496 169.289 882.337 167.082 857.001C158.675 751.257 186.649 645.814 246.371 558.145C271.604 521.021 290.887 501.023 318.899 467.644Z" fill="white"/>
<path d="M733.523 830.608C739.022 817.268 748.011 804.587 755.331 792.553C763.218 779.585 769.526 762.804 779.644 752.069C806.659 723.41 849.158 696.151 874.141 744.198C881.563 758.473 888.484 772.146 894.083 787.374C915.184 835.062 901.085 847.621 864.438 876.904C860.257 867.781 852.621 847.926 843.178 844.315L840.253 845.237C840.178 853.379 852.32 879.293 854.84 889.907C871.223 958.952 861.05 1028.35 857.71 1098.1C857.572 1100.99 857.332 1104.26 857.422 1107.14C857.811 1112.88 856.939 1115.37 860.035 1119.09C862.814 1119.36 864.299 1119.56 867.071 1119.37C866.728 1125.83 866.656 1133.15 864.96 1139.31C861.086 1142.99 856.018 1148.72 850.189 1147.67C843.542 1151.92 835.277 1159.06 827.325 1155.38C810.359 1146.65 796.225 1137.33 778.105 1128.81C731.938 1107.1 687.228 1104.59 637.553 1101.94C635.087 1070.1 627.159 1039.47 629.945 1005.67C631.969 981.132 637.107 964.926 637.094 939.663C640.356 935.461 641.084 941.645 646.952 932.871C642.62 924.835 636.692 918.776 644.249 912.253C657.73 913.854 672.849 924.572 684.164 932.402L685.719 930.788C684.901 921.622 662.654 913.544 661.214 901.83L662.81 900.134C673.76 900.785 676.72 904.495 684.415 896.376L681.402 894.529C674.38 891.322 671.474 887.806 666.575 881.991C665.539 873.66 665.026 868.727 664.979 860.306C663.684 856.242 663.355 853.71 659.724 851.374C681.515 843.414 692.311 838.648 712.419 826.719C716.944 830.376 719.15 831.811 720.997 837.499L724.859 843.126L726.51 842.981C728.513 836.668 729.237 835.741 733.523 830.608Z" fill="white"/>
<path d="M644.249 912.252C657.73 913.853 672.849 924.572 684.163 932.402C693.852 940.728 734.625 975.86 738.019 985.068L737.499 990.515C727.987 991.829 715.436 991.293 705.892 990.359C690.442 986.409 680.032 983.006 667.419 972.93C652.734 963.5 642.896 941.611 637.094 939.662C640.356 935.46 641.084 941.644 646.952 932.871C642.619 924.835 636.692 918.775 644.249 912.252Z" fill="black"/>
<path d="M646.952 932.871C660.313 950.79 664.147 958.186 681.542 972.403L681.998 975.095C687.989 979.329 689.813 979.991 696.774 982.434L695.207 983.787C683.451 980.13 679.289 974.65 667.419 972.93C652.734 963.5 642.896 941.611 637.094 939.662C640.356 935.461 641.084 941.644 646.952 932.871Z" fill="black"/>
<path d="M681.542 972.402C691.354 978.438 695.849 980.306 707.423 981.392L707.354 982.944L708.023 982.851L704.022 984.715C705.145 987.351 704.954 986.617 707.662 988.558L707.605 985.442C710.544 986.588 710.619 986.642 712.497 989.102L705.892 990.359C690.442 986.409 680.031 983.006 667.418 972.93C679.289 974.65 683.451 980.129 695.206 983.787L696.774 982.434C689.813 979.991 687.988 979.329 681.998 975.095L681.542 972.402Z" fill="black"/>
<path d="M684.414 896.376C686.513 897.256 688.634 898.506 690.739 898.004C731.129 923.411 743.713 941.425 756.85 985.611C750.447 987.475 744.089 989.512 737.498 990.515L738.019 985.069C734.624 975.861 693.852 940.729 684.163 932.402L685.718 930.788C684.9 921.622 662.654 913.543 661.213 901.83L662.81 900.134C673.759 900.785 676.719 904.495 684.414 896.376Z" fill="black"/>
<path d="M712.419 826.72C716.943 830.377 719.149 831.812 720.997 837.5L720.295 838.554C719.773 846.062 717.448 854.613 714.181 861.408C703.721 871.655 692.814 883.317 681.402 894.53C674.379 891.323 671.473 887.807 666.574 881.992C665.538 873.661 665.025 868.727 664.978 860.307C663.683 856.243 663.354 853.711 659.723 851.375C681.514 843.414 692.31 838.648 712.419 826.72Z" fill="black"/>
<path d="M712.419 826.72C716.943 830.377 719.149 831.812 720.997 837.5L720.295 838.554C714.319 837.796 693.226 849.065 686.642 852.025C680.655 854.715 670.107 857.656 664.978 860.307C663.683 856.243 663.354 853.711 659.723 851.375C681.514 843.414 692.31 838.648 712.419 826.72Z" fill="black"/>
<path d="M681.402 894.525C692.814 883.313 703.721 871.651 714.182 861.403C717.09 865.919 715.47 864.469 720.372 866.836C714.176 880.13 704.96 892.632 690.739 898C688.635 898.502 686.514 897.253 684.414 896.373L681.402 894.525Z" fill="black"/>
<path d="M857.422 1107.14C857.811 1112.88 856.939 1115.37 860.035 1119.09C862.814 1119.36 864.299 1119.56 867.071 1119.37C866.728 1125.83 866.656 1133.15 864.96 1139.31C861.086 1142.99 856.018 1148.72 850.189 1147.67C854.492 1137.65 855.799 1118.83 857.422 1107.14Z" fill="black"/>
<path d="M720.996 837.497L724.858 843.123L726.509 842.979C728.512 836.666 729.236 835.739 733.522 830.605C729.945 842.039 725.37 855.891 720.371 866.838C715.469 864.47 717.089 865.921 714.181 861.405C717.447 854.611 719.773 846.059 720.295 838.552L720.996 837.497Z" fill="black"/>
<path d="M414.272 946.4C406.723 943.373 402.045 939.615 396.678 933.531C335.211 863.849 418.926 818.695 464.229 780.671C473.779 797.927 484.769 811.89 498.602 825.97C507.733 831.009 508.453 836.116 516.566 840.595L517.959 844.944C513.161 869.468 564.055 898.093 566.116 902.552C563.736 904.527 564.779 904.165 561.894 904.679C564.454 905.525 570.39 907.293 572.447 908.533L574.1 907.75L580.02 913.32C572.375 923.543 569.914 921.732 562.033 929.292C558.245 932.926 558.1 939.463 551.134 944.524C548.886 951.938 545.471 960.802 546.212 968.34C533.904 982.038 538.431 1022.48 535.821 1026.39C531.884 1024.09 530.084 1018.94 528.049 1014.67C528.589 1026.53 528.651 1032.55 542.454 1033.03C553.571 1033.43 576.105 1021.36 585.391 1021.84L597.956 1027.53C606.505 1024.98 610.584 1024.61 615.116 1017.27L618.252 1017.07C619.685 1019.71 620.187 1021.01 621.244 1023.83C621.536 1054.51 623.23 1072.02 626.75 1102.8C590.606 1103.48 538.844 1113.46 508.316 1131.97C492.204 1141.75 476.908 1152.68 460.318 1162.37C418.631 1120.26 418.335 998.735 430.483 942.834C425.398 944.179 419.474 945.293 414.272 946.4Z" fill="white"/>
<path d="M572.448 908.535L574.101 907.751L580.02 913.322C572.375 923.544 569.915 921.733 562.033 929.293C558.245 932.927 558.1 939.465 551.134 944.525C548.886 951.939 545.471 960.803 546.212 968.341C533.904 982.039 538.431 1022.48 535.821 1026.39C531.884 1024.09 530.084 1018.94 528.05 1014.67C526.728 1011.86 526.765 999.958 526.913 996.445C528.25 964.659 549.461 929.584 572.448 908.535Z" fill="black"/>
<path d="M498.602 825.971C507.733 831.01 508.454 836.117 516.566 840.596L517.959 844.944C513.161 869.469 564.055 898.093 566.116 902.553C563.736 904.528 564.779 904.166 561.894 904.68C538.775 897.242 517.356 882.28 510.535 857.925C505.273 839.145 510.351 842.386 498.602 825.971Z" fill="black"/>
<path d="M606.56 1036.92C611.07 1038.51 616.319 1048.14 619.74 1052.89C613.664 1066.3 612.428 1068.77 598.168 1072.35C570.542 1061.42 588.317 1044.13 606.56 1036.92Z" fill="black"/>
<path d="M600.593 1045.56L602.914 1046.32C607.691 1052.07 605.832 1060.31 600.89 1065.43C598.078 1061.89 596.301 1060.17 595.42 1055.73C595.785 1050.9 597.537 1049.35 600.593 1045.56Z" fill="white"/>
<path d="M520.602 684.958C500.793 738.631 549.694 789.346 600.352 805.062C675.314 828.315 746.677 711.535 711.931 657.63C712.935 656.456 781.961 631.661 789.248 629.326C779.897 707.599 776.773 772.241 712.419 826.719C692.31 838.647 681.514 843.413 659.723 851.374C616.945 866.675 585.32 858.882 545.195 843.976C540.606 841.501 535.539 839.571 530.928 836.943C489.848 813.531 470.322 771.386 456.119 728.391C452.6 717.74 450.6 706.637 447.336 695.823C474.798 677.202 501.024 673.543 533.315 673.617L520.602 684.958Z" fill="white"/>
<path d="M471.852 1165.08C477.346 1162.06 489.248 1152.61 494.692 1148.64C541.538 1114.52 586.222 1112.81 641.45 1111.65C710.43 1110.2 758.203 1118.01 816.016 1159.77L818.385 1163.46C803.905 1173.59 760.546 1184.69 742.726 1190.26C700.389 1203.47 656.641 1206.14 612.666 1209.82C605.659 1210.44 597.274 1212.89 595.29 1205.44C590.846 1214.45 495.715 1204.46 487.451 1195.7L486.091 1197.47C481.251 1199.55 483.379 1199.28 478.003 1198.27C472.789 1193.7 473.2 1195.49 472.502 1189.49L470.816 1183.05L478.003 1176.06L471.852 1165.08Z" fill="white"/>
<path d="M595.29 1205.44C595.756 1200.63 596.788 1195.81 594.605 1191.64C585.658 1184.07 557.225 1173.72 555.815 1163L557.937 1160.61C561.705 1160.81 604.585 1184.14 614.639 1187.81C614.166 1195.57 613.752 1202.09 612.666 1209.82C605.659 1210.43 597.274 1212.88 595.29 1205.44Z" fill="black"/>
<path d="M478.003 1176.06C482.153 1182.94 485.327 1187.77 487.451 1195.69L486.091 1197.47C481.251 1199.55 483.379 1199.28 478.003 1198.27C472.789 1193.7 473.2 1195.49 472.502 1189.49L470.816 1183.04L478.003 1176.06Z" fill="black"/>
<path d="M915.219 573.024L917.539 570.798C935.968 553.18 962.513 528.494 989.43 529.089C983.695 539.603 988.61 536.8 986.566 545.37C976.071 580.612 958.35 590.906 946.919 622.536C943.488 632.029 946.43 657.129 947.634 667.935C953.429 719.965 939.871 759.289 912.06 802.775C899.626 768.332 887.821 735.257 860.003 710.536C864.801 697.509 875.054 667.208 880.564 656.205C873.229 649.745 863.827 642.009 858.012 634.427C873.8 619.182 885.101 614.55 902.311 602.822L898.242 597.834L909.408 587.643L905.04 584.468C908.953 580.812 912.679 577.762 915.219 573.024Z" fill="white"/>
<path d="M915.218 573.024L917.538 570.798C935.968 553.18 962.512 528.494 989.43 529.089C983.694 539.603 988.609 536.8 986.565 545.37C985.244 540.005 986.23 540.051 982.715 537.553C978.402 537.468 976.208 537.438 973.165 540.55C955.345 558.762 937.313 574.398 917.598 590.521C915.701 588.183 915.403 587.868 913.03 586.028L909.407 587.643L905.039 584.468C908.953 580.812 912.679 577.762 915.218 573.024Z" fill="black"/>
<path d="M909.408 587.642L913.031 586.027C915.404 587.867 915.701 588.182 917.599 590.52L902.311 602.821L898.242 597.833L909.408 587.642Z" fill="black"/>
<path d="M370.035 914.817C377.992 931.39 392.243 948.377 408.252 958.297C410.336 959.588 414.311 960.5 414.309 962.389C414.277 982.7 412.099 1009.4 411.288 1029.32C410.791 1043.92 410.621 1058.52 410.776 1073.12C404.173 1072.73 394.154 1072.45 387.867 1071.44C390.346 1098.23 391.736 1115.71 389.491 1142.9C389.9 1148.46 388.944 1148.53 391.956 1151.78L395.048 1152.39L395.161 1153.85C390.578 1155.77 389.79 1156.21 384.72 1156.15L368.566 1147.52C355.443 1134.75 351.085 1125.71 344.533 1109.04C345.99 1108.87 348.864 1108.15 350.422 1107.81C353.529 1104.14 352.604 1104.76 353.192 1099.17C336.247 1041.98 351.805 970.308 370.035 914.817Z" fill="white"/>
<path d="M353.192 1099.17C357.164 1111.69 374.577 1145.63 387.41 1147.97C388.793 1145.56 388.849 1145.57 389.491 1142.9C389.9 1148.46 388.944 1148.53 391.956 1151.78L395.048 1152.39L395.161 1153.85C390.578 1155.77 389.79 1156.2 384.72 1156.15L368.566 1147.52C355.443 1134.75 351.085 1125.71 344.533 1109.04C345.99 1108.87 348.864 1108.15 350.422 1107.81C353.529 1104.14 352.604 1104.76 353.192 1099.17Z" fill="black"/>
<path d="M846.114 615.487C851.489 614.868 859.644 613.027 864.196 614.65L863.718 613.842L864.969 614.892C863.531 617.309 863.449 617.787 861.133 619.206L861.532 621.273C835.262 638.237 850.576 646.6 870.043 658.216C860.685 675.74 855.334 690.182 848.422 708.654C816.072 715.837 805.215 722.691 778.291 741.645C782.477 724.335 787.901 707.57 791.644 689.752C796.048 668.794 798.912 648.54 802.266 627.421C815.306 624.018 833.915 619.887 846.114 615.487Z" fill="white"/>
<path d="M400.407 1084.94C405.672 1084.07 411.387 1083.24 416.583 1082.21C420.535 1100.73 437.818 1155.5 451.896 1167.27C453.616 1167.8 455.348 1168.27 457.093 1168.7C463.801 1170.34 466.235 1168.55 471.853 1165.08L478.003 1176.06L470.817 1183.05L472.503 1189.49L471.195 1191.19C460.202 1194.44 404.468 1171.67 390.251 1165.72L382.991 1162.65L384.72 1156.15C389.79 1156.21 390.579 1155.77 395.161 1153.86L395.049 1152.39C402.399 1133.6 400.596 1105.34 400.407 1084.94Z" fill="white"/>
<path d="M451.895 1167.27C453.615 1167.79 455.348 1168.27 457.092 1168.7C463.8 1170.33 466.234 1168.55 471.852 1165.08L478.002 1176.06L470.816 1183.04C463.94 1173.12 461.137 1174.86 452.626 1167.88L451.895 1167.27Z" fill="black"/>
<path d="M395.161 1153.85L393.196 1160.48C392.417 1163.18 392.18 1163.62 390.251 1165.72L382.991 1162.65L384.72 1156.15C389.79 1156.2 390.579 1155.77 395.161 1153.85Z" fill="white"/>
<path d="M567.337 989.356L570.194 990.524C585.272 983.475 615.121 917.999 622.015 913.16C624.978 914.886 624.01 914.024 625.258 918.291L625.03 918.943C624.512 920.479 624.02 922.023 623.557 923.576C621.267 930.983 622.312 940.769 620.597 946.29C614.054 967.345 603.139 985.525 591.011 1003.7C587.279 1009.29 582.494 1015.52 585.391 1021.84C576.105 1021.36 553.572 1033.42 542.455 1033.03C528.651 1032.55 528.589 1026.53 528.05 1014.67C530.085 1018.94 531.884 1024.08 535.822 1026.38C538.431 1022.48 533.904 982.036 546.212 968.338L546.146 969.337C545.752 974.656 542.032 987.072 542.801 989.467L546.886 988.308C556.72 994.471 557.378 997.585 567.337 989.356Z" fill="black"/>
<path d="M599.731 899.653L603.19 898.399C607.459 901.577 607.87 905.781 609.092 911.257C598.12 947.562 583.327 958.563 567.337 989.361C557.378 997.59 556.72 994.476 546.886 988.313L542.801 989.472C542.032 987.076 545.752 974.66 546.146 969.342L546.212 968.343C545.471 960.805 548.886 951.941 551.134 944.527C558.1 939.466 558.245 932.929 562.033 929.295C569.915 921.735 572.375 923.546 580.02 913.323C586.128 908.635 593.306 904.004 599.731 899.653Z" fill="black"/>
<path d="M517.959 844.944C524.254 849.377 531.342 850.59 538.904 851.931C557.789 858.466 576.62 865.157 595.393 872.006C597.619 879.673 598.654 884.319 595.395 891.861L595.278 897.075C597.153 897.948 598.34 898.236 599.73 899.651C593.305 904.002 586.128 908.633 580.019 913.321L574.1 907.75L572.447 908.534C570.39 907.293 564.453 905.525 561.894 904.68C564.778 904.166 563.736 904.528 566.116 902.553C564.054 898.093 513.161 869.469 517.959 844.944Z" fill="black"/>
<path d="M574.1 907.749C583.18 900.734 585.556 900.956 595.395 891.859L595.278 897.073C597.153 897.947 598.34 898.235 599.73 899.65C593.305 904.001 586.128 908.632 580.019 913.32L574.1 907.749Z" fill="black"/>
<path d="M545.196 843.973C585.321 858.878 616.946 866.671 659.724 851.371C663.355 853.707 663.684 856.238 664.979 860.302C665.027 868.723 665.539 873.657 666.575 881.987C671.475 887.802 674.38 891.318 681.403 894.525L684.415 896.372C676.72 904.492 673.76 900.781 662.811 900.13L661.215 901.827C662.655 913.54 684.901 921.618 685.719 930.784L684.164 932.399C672.85 924.569 657.73 913.85 644.249 912.249C649.139 912.175 648.921 912.891 652.677 910.686L651.65 908.347C648.845 906.667 648.291 906.552 645.087 905.838L648.627 905.023C653.411 898.514 653.681 878.341 654.421 869.298C647.92 870.755 635.119 871.133 627.987 871.523L628.973 869.849C622.612 868.838 604.222 869.371 596.993 869.422L596.382 868.329C595.618 869.995 595.281 870.223 595.393 872.004C576.62 865.156 557.789 858.465 538.904 851.93C543.452 852.194 546.078 852.092 550.618 851.817L551.529 850.579C549.453 848.343 547.342 846.141 545.196 843.973Z" fill="black"/>
<path d="M627.986 871.525C635.119 871.135 647.919 870.757 654.42 869.3C653.68 878.343 653.411 898.516 648.626 905.025L645.087 905.84C627.603 903.4 618.427 909.894 611.322 887.728C609.889 883.257 605.925 876.346 603.432 872.135C611.377 872.18 619.987 871.771 627.986 871.525Z" fill="black"/>
<path d="M905.04 584.469L909.408 587.644L898.242 597.835C893.023 601.842 866.935 619.52 861.532 621.276L861.133 619.209C863.45 617.79 863.532 617.312 864.969 614.895L863.718 613.845L864.196 614.654C859.644 613.03 851.489 614.872 846.114 615.49C867.542 608.906 887.061 597.6 905.04 584.469Z" fill="white"/>
<path d="M689.904 414.112C721.975 410.34 772.308 414.009 803.625 420.566C828.937 425.865 811.648 488.126 805.493 503.582C735.741 490.807 702.437 481.735 630.98 494.846C551.867 509.361 506.085 532.332 451.959 592.424C433.165 612.637 414.792 635.79 397.666 657.494C376.62 633.171 359.571 609.201 385.728 580.448C460.321 498.452 578.587 424.088 689.904 414.112Z" fill="white"/>
<path d="M677.179 544.454C684.312 547.941 692.588 552.802 700.487 551.392C707.24 543.739 697.437 530.595 711.806 529.608C749.751 527 746.003 568.669 771.502 589.208C786.741 579.357 794.449 564.597 806.276 550.704C808.537 569.87 809.913 584.315 807.71 603.867C773.003 610.619 741.689 610.812 702.971 619.04C685.93 623.554 665.285 627.059 650.365 635.29C646.685 638.739 644.805 640.682 640.449 643.289C632.382 644.732 626.162 632.617 613.033 638.502C613.976 641.348 618.243 642.166 621.321 643.507C637.376 650.505 629.872 669.612 616.302 674.716C594.062 683.08 597.385 658.052 575.415 650.961C532.908 637.239 485.341 645.471 448.505 670.17C439.243 676.344 426.267 683.743 414.964 688.709C412.672 684.066 410.386 678.077 408.371 673.206C414.983 663.316 419.535 659.145 427.967 650.433C431.147 655.804 434.847 661.199 438.305 666.424C453.212 653.673 456.918 649.292 464.259 631.449L470.554 638.206C475.437 639.538 473.446 639.681 478.043 637.731C482.649 632.804 486.832 618.05 489.381 610.862C495.311 614.652 499.507 618.471 506.121 617.358C510.003 614.154 511.776 606.277 513.753 600.974C514.773 585.8 518.828 575.623 525.251 562.153C549.894 516.286 588.456 544.786 607.764 577.251C620.619 567.907 624.67 562.199 634.563 549.443C637.985 542.287 643.749 536.002 649.191 530.343C659.658 534.493 667.513 538.81 677.179 544.454Z" fill="white"/>
<path d="M651.606 589.749L665.199 603.157C676.78 606.298 690.66 605.783 698.054 616.078C700.595 617.16 700.961 617.212 702.97 619.041C685.93 623.555 665.284 627.06 650.364 635.291C646.919 634.155 643.729 628.694 642.313 625.514C636.778 617.565 627.916 611.417 630.73 600.829C635.497 593.779 643.588 592.211 651.606 589.749Z" fill="black"/>
<path d="M659.474 614.636C675.587 613.432 682.299 614.844 698.054 616.075C700.595 617.157 700.961 617.208 702.971 619.037C685.93 623.552 665.285 627.056 650.365 635.287C646.919 634.151 643.729 628.69 642.313 625.51C646.642 623.852 655.258 617.524 659.474 614.636Z" fill="white"/>
<path d="M532.885 567.097C542.45 557.221 560.216 548.849 573.177 556.624C578.537 567.154 563.921 572.537 555.602 572.552C535.199 572.589 530.998 583.166 518.523 596.89L513.753 600.974C514.773 585.8 518.828 575.624 525.251 562.153L532.885 567.097Z" fill="black"/>
<path d="M513.753 600.972C514.773 585.798 518.828 575.622 525.251 562.151L532.885 567.096C528.99 573.159 517.158 589.953 518.523 596.888L513.753 600.972Z" fill="white"/>
<path d="M649.19 530.343C659.657 534.493 667.512 538.81 677.179 544.454L674.158 552.699C686.565 559.288 690.367 563.364 696.994 574.922C686.781 568.617 678.726 561.96 667.574 558.041C658.697 559.722 649.905 564.513 642 561.01C638.647 557.022 639.674 557.576 639.128 551.387L636.844 551.598L634.562 549.443C637.984 542.287 643.749 536.002 649.19 530.343Z" fill="black"/>
<path d="M649.19 530.343C659.657 534.493 667.512 538.81 677.179 544.454L674.158 552.699C659.024 545.938 653.701 542.205 639.128 551.387L636.844 551.598L634.562 549.443C637.984 542.287 643.749 536.002 649.19 530.343Z" fill="white"/>
<path d="M572.635 595.958C575.679 596.299 578.716 596.701 581.743 597.164C597.617 599.709 591.033 615.678 588.684 626.899C572.602 625.049 567.869 624.556 551.932 627.273C546.085 628.985 542.581 630.292 536.395 630.182L535.71 628.586C541.134 622.431 550.214 619.785 555.219 615.336C561.916 609.386 562.714 601.127 572.635 595.958Z" fill="black"/>
<path d="M694.412 666.048C697.659 666.251 700.785 667.349 703.446 669.22C730.865 688.655 682.607 857.574 564.638 775.089C538.223 753.29 519.495 721.313 529.119 686.635C530.43 681.917 601.699 690.031 612.342 690.168C646.388 690.608 663.395 673.578 694.412 666.048Z" fill="white"/>
<path d="M840.052 555.197C838.436 549.149 836.921 543.642 835.783 537.46C843.996 543.737 848.548 547.347 855.807 554.626C888.331 579.037 842.208 596.967 821.104 600.602C822.425 584.639 822.331 569.008 822.306 553.019C827.545 554.904 835.906 559.293 840.052 555.197Z" fill="white"/>
<path d="M840.051 555.197C838.435 549.149 836.92 543.642 835.782 537.46C843.995 543.737 848.547 547.347 855.806 554.626C846.608 552.49 848.518 547.794 840.051 555.197Z" fill="white"/>
<path d="M601.572 999.473L604.236 1002C606.42 1010.09 607.428 1015.83 600.849 1021.86C593.177 1012.65 596.048 1008.98 601.572 999.473Z" fill="white"/>
<path d="M575.203 675.522C581.725 675.164 593.11 674.032 598.942 675.954L598.923 677.772L594.252 680.034C587.526 680.683 577.646 680.29 571.119 678.66L570.432 677.375L575.203 675.522Z" fill="white"/>
<path d="M637.217 672.387C641.07 672.309 644.239 672.141 646.787 674.585C644.383 678.21 643.763 677.509 638.882 679.465C634.395 679.989 633.136 680.927 629.63 679.196C631.234 675.371 633.21 675.077 637.217 672.387Z" fill="white"/>
<path d="M919.433 326.127C927.584 324.034 948.1 325.222 955.676 328.14C1038.54 358.447 1056.92 381.539 1120.68 440.149C1149.9 434.062 1190.8 425.77 1220.14 420.657C1235.08 418.053 1285.74 434.586 1299.58 442.979C1333.19 464.877 1333.67 493.53 1345.19 525.244L1344.66 526.191C1341.46 531.957 1340.29 539.186 1338.91 545.695C1333.22 573.928 1327.92 599.046 1296.19 608.288C1275.16 614.415 1264.98 605.076 1247.28 597.666C1221.32 586.797 1199.72 548.759 1176.05 539.724C1145.9 528.209 1104.68 533.185 1072.86 528.136C1018.4 520.521 960.657 504.3 911.793 478.803C897.336 471.26 872.053 447.136 866.37 431.159C863.869 424.127 862.341 411.091 860.067 403.24C870.257 368.746 871.638 358.311 901.346 336.438C906.71 331.683 912.961 329.171 919.433 326.127Z" fill="black"/>
<path d="M919.433 326.126C923.366 326.331 927.295 326.578 931.222 326.866C931.316 328.514 931.552 327.824 930.712 328.995C925.956 330.436 905.528 336.217 901.346 336.437C906.711 331.682 912.962 329.17 919.433 326.126Z" fill="black"/>
<path d="M919.434 326.127C927.585 324.034 948.1 325.222 955.677 328.14C946.558 329.196 939.703 328.662 930.712 328.995C931.552 327.825 931.316 328.514 931.222 326.867C927.295 326.579 923.366 326.332 919.434 326.127Z" fill="black"/>
<path d="M922.927 341.144C931.984 340.554 942.553 341.458 951.325 343.325C1021.19 358.192 1133.23 466.615 1170.44 523.495C1155.34 523.2 1146.2 522.48 1131.35 520.81C1067.58 518.618 970.669 498.44 916.496 466.271C874.162 441.131 867.898 391.22 897.588 354.465C905.579 344.572 910.801 343.268 922.927 341.144Z" fill="white"/>
<path d="M1187.87 442.041C1206.86 440.837 1250.03 440.277 1267.31 444.529C1287.73 449.513 1305.33 462.427 1316.2 480.418C1327.02 498.275 1332.01 520.784 1326.17 541.107C1321.92 555.879 1313.04 585.029 1299.05 593.365C1291.21 598.04 1280.22 596.174 1272.05 593.857C1233.48 580.628 1154.17 483.482 1125.28 448.354C1148.34 442.727 1164.28 442.827 1187.87 442.041Z" fill="white"/>
<path d="M137.365 1199.92L138.484 1196.6C141.529 1196.69 147.357 1200.63 148.044 1202.63C150.572 1209.96 190.875 1237.55 191.748 1239.61C185.775 1240.69 187.372 1242.59 182.199 1240.62C180.024 1237.92 176.323 1235.22 173.55 1232.98L171.517 1231.72C157.355 1221.72 147.743 1213.77 137.365 1199.92Z" fill="black"/>
<path d="M137.365 1199.91C147.743 1213.76 157.355 1221.71 171.517 1231.72L170.602 1235.68C169.519 1236.23 167.561 1237.31 166.501 1237.67C158.692 1232.67 155.147 1230.38 148.847 1223.5C145.014 1211.9 140.357 1209.81 137.365 1199.91Z" fill="black"/>
<path d="M173.549 1232.98C176.323 1235.22 180.024 1237.92 182.198 1240.62C183.726 1243.78 195.055 1251.22 198.999 1258.49L197.794 1261.57C190.227 1256.16 180.823 1249.35 174.09 1243.2C175.95 1243.04 176.48 1242.58 178.139 1241.73C178.03 1238.4 175.71 1236.2 173.549 1232.98Z" fill="black"/>
<path d="M182.198 1240.62C187.371 1242.59 185.774 1240.69 191.747 1239.61C192.198 1247.23 201.432 1259.36 208.682 1261.7L209.672 1263.83L203.68 1265.74L197.793 1261.57L198.998 1258.5C195.054 1251.22 183.726 1243.78 182.198 1240.62Z" fill="black"/>
<path d="M191.748 1239.61C194.294 1241.39 203.504 1247.56 205.277 1249.3C205.312 1255.49 205.27 1256.67 208.683 1261.7C201.433 1259.36 192.199 1247.23 191.748 1239.61Z" fill="black"/>
<path d="M171.516 1231.72L173.55 1232.98C175.71 1236.21 178.03 1238.4 178.14 1241.73C176.48 1242.59 175.95 1243.04 174.09 1243.2L166.5 1237.67C167.56 1237.31 169.518 1236.23 170.602 1235.68L171.516 1231.72Z" fill="black"/>
<path d="M203.681 1265.74L209.673 1263.83C213.021 1266.61 213.645 1266.17 214.587 1269.85C209.941 1271.22 207.045 1268.6 203.681 1265.74Z" fill="black"/>
</g>
</svg>
